<svg id="Слой_1" data-name="Слой 1" xmlns="http://www.w3.org/2000/svg" viewBox="0 0 153.67 30"><defs><style>.cls-1{fill:#fec2a3;}.cls-2{fill:#fff;}</style></defs><path class="cls-1" d="M7.91,17.46,6.34,19.09v4.32H4.66V10.61H6.34v6.33L12,10.61h2L9,16.26l5.43,7.15h-2Zm28,2.61H30.52l-1.21,3.34H27.57l4.89-12.8h1.47l4.9,12.8H37.1Zm-4.85-1.39h4.35l-2.24-6ZM61.17,12H57V23.41H55.33V12h-4.1V10.61h9.94Zm23.94,7.35a4.69,4.69,0,0,1-1.51,3.14,4.89,4.89,0,0,1-3.43,1.1A4.52,4.52,0,0,1,76.53,22a6.57,6.57,0,0,1-1.36-4.35v-1.2a7.51,7.51,0,0,1,.64-3.14,4.73,4.73,0,0,1,1.81-2.07,4.94,4.94,0,0,1,2.74-.79,4.56,4.56,0,0,1,3.26,1.14,4.66,4.66,0,0,1,1.44,3.15h-1.7a3.56,3.56,0,0,0-1-2.22,2.81,2.81,0,0,0-2-.68A3,3,0,0,0,77.82,13a5.52,5.52,0,0,0-.92,3.4v1.24A5.71,5.71,0,0,0,77.77,21a2.83,2.83,0,0,0,2.4,1.26,3.22,3.22,0,0,0,2.15-.64,3.48,3.48,0,0,0,1-2.22Zm25,4.06h-1.69V17.5H102v5.91h-1.69V10.61H102v5.51h6.45V10.61h1.69Zm23.06-5.91h-5.54V22h6.44v1.38h-8.13V10.61h8V12h-6.35v4.12h5.58Zm20.57.73h-3v5.18H149V10.61h4.24a5,5,0,0,1,3.33,1,3.54,3.54,0,0,1,1.17,2.86,3.55,3.55,0,0,1-.65,2.09,4,4,0,0,1-1.79,1.32l3,5.43v.1h-1.81Zm-3-1.38h2.59a2.89,2.89,0,0,0,2-.65,2.15,2.15,0,0,0,.74-1.74,2.27,2.27,0,0,0-.71-1.82,2.93,2.93,0,0,0-2-.64h-2.58Z" transform="translate(-4.66 -10.4)"/><path class="cls-2" d="M42.58,20.64a2.55,2.55,0,0,0-.64.54q-6.63,12.36-6.63,15.88c0,.79.27,1.19.79,1.19a5.11,5.11,0,0,0,2.81-1.59,4.48,4.48,0,0,0,.4-.36c.09-.07.13-.1.11-.1s.14,0,.14.1a.81.81,0,0,1-.14.33c-1.06,1.49-2.14,2.23-3.24,2.23A1.68,1.68,0,0,1,34.38,37q0-1.91,1.83-6.87c-.6.81-1,1.22-1.26,1.22-.07,0-.11,0-.11-.07a13.43,13.43,0,0,1,.94-1.3,8.67,8.67,0,0,0,1-1.4,70.39,70.39,0,0,1,3.35-7.78q2.23-4.53,3.06-6.05a1.19,1.19,0,0,1,1.19-.61c.62,0,.94.09.94.25S44.43,16.61,42.58,20.64ZM68.94,34.32c.14-.19.25-.28.32-.28s.11.06.11.18a.55.55,0,0,1-.14.32c-2.16,3.22-3.83,4.82-5,4.82a1.61,1.61,0,0,1-1.47-.9,4.43,4.43,0,0,1-.47-2.05,11.65,11.65,0,0,1,.36-2.63q-2.26,5-4.68,5c-1,0-1.48-.63-1.48-1.9q0-3.06,3-6.38c2-2.2,4-3.31,5.94-3.31.93,0,1.4.41,1.4,1.23,0,1-.67,2-2,3a13.39,13.39,0,0,0-1,5c0,1.59.3,2.38.9,2.38S66.85,37.35,68.94,34.32Zm-3.86-4.06a2.69,2.69,0,0,0,.58-1.59c0-.53-.25-.79-.76-.79q-1.8,0-4.71,3.56t-2.88,5.42c0,.55.27.83.79.83,1.52,0,3-1.68,4.4-5a4.2,4.2,0,0,1-.87.18c-.14,0-.21,0-.21-.11s.16-.24.5-.36l1.16-.67a3.73,3.73,0,0,1,.75-1.58c.46-.67.89-1,1.3-1,.14,0,.21.1.21.29A2.7,2.7,0,0,1,65.08,30.26ZM96.69,33.5c.08,0,.11,0,.11.14a.43.43,0,0,1-.07.25,4.63,4.63,0,0,1-3,2.41,4,4,0,0,1-.8,2.13,2.53,2.53,0,0,1-2.16.86,3.86,3.86,0,0,1-2.8-1.4,4.5,4.5,0,0,1-1.34-3.13c0-.75.2-1.12.58-1.12s.48.18.72.54A42.68,42.68,0,0,1,91,28.49a3.56,3.56,0,0,1,3-1.94,1.63,1.63,0,0,1,.83.29c.34.16.5.36.5.57s-.1.25-.32.25a3.09,3.09,0,0,1-.43,0h-.29a2.23,2.23,0,0,0-1.44.5,1.33,1.33,0,0,0-.58,1,2.6,2.6,0,0,0,.11.83l.89,2.87a11.28,11.28,0,0,1,.5,3,3,3,0,0,0,1.51-.61,6.66,6.66,0,0,0,1.3-1.55.27.27,0,0,1,.21-.2Zm-4.5,2.77a4.82,4.82,0,0,0,0-.76,15.56,15.56,0,0,0-.54-2.7,16,16,0,0,1-.5-2.66,4,4,0,0,1,0-.69,27.33,27.33,0,0,0-3.06,5.19c1,.57,1.77,1,2.27,1.22a5.45,5.45,0,0,0,1.87.4ZM90.25,38.1a1.88,1.88,0,0,0,1.91-1.4,7.06,7.06,0,0,1-4.39-1.19,3,3,0,0,0,.86,1.73,2.22,2.22,0,0,0,1.66.86ZM123.51,28l-.32,2.74a15.82,15.82,0,0,0,.64,4.43c.63,2.06,1.48,3.09,2.56,3.09a2,2,0,0,0,.72-.18,2.3,2.3,0,0,1,.5-.18c.2,0,.29.11.29.33s-.25.42-.75.61a3.31,3.31,0,0,1-1.12.29c-1.22,0-2.29-.93-3.2-2.77a11.82,11.82,0,0,1-1.33-5c0-.21,0-.41,0-.62a41.72,41.72,0,0,1-5.15,5.48c-.31,1-.57,2.11-.79,3.16a1.15,1.15,0,0,1-1.19,1c-.29,0-.4-.1-.36-.29a6.5,6.5,0,0,0-.5-.94,2,2,0,0,1-.43-.83c0-.14.08-.22.25-.25A11,11,0,0,0,115,36.83q2.19-6.4,7.52-18.18c.08-.18.16-.36.22-.54a10.45,10.45,0,0,1,.72-1.51c.26-.55.9-.83,1.91-.83.36,0,.54.09.54.25l-2.16,4.07a118.17,118.17,0,0,0-7,15,29.66,29.66,0,0,0,5.58-6.94.72.72,0,0,1,.68-.36c.44-.05.59.07.59.23Zm-8.85,9.84-.76.61a3.53,3.53,0,0,1,.36.76C114.46,38.5,114.59,38,114.66,37.86Z" transform="translate(-4.66 -10.4)"/></svg>